<svg width="679" height="596" viewBox="0 0 679 596" fill="none" xmlns="http://www.w3.org/2000/svg">
<circle opacity="0.2" cx="297.793" cy="297.794" r="217.5" transform="rotate(-165 297.793 297.794)" stroke="#EDEFF1"/>
<path d="M188.793 486.587C159.579 469.72 134.678 446.304 116.049 418.181C97.4206 390.058 85.5725 357.995 81.4374 324.516C77.3024 291.037 80.9932 257.055 92.2194 225.245C103.446 193.434 121.901 164.663 146.133 141.195C170.365 117.727 199.713 100.203 231.867 90.0011C264.021 79.7996 298.103 77.1993 331.433 82.4047C364.762 87.61 396.429 100.479 423.941 119.999C451.453 139.519 474.059 165.158 489.982 194.897L489.047 195.398C473.202 165.803 450.705 140.289 423.327 120.864C395.949 101.439 364.436 88.6324 331.269 83.4523C298.102 78.2723 264.185 80.86 232.188 91.0118C200.19 101.164 170.985 118.603 146.871 141.957C122.757 165.31 104.391 193.942 93.2193 225.598C82.0477 257.253 78.3748 291.07 82.4898 324.386C86.6048 357.702 98.3952 389.609 116.933 417.595C135.472 445.582 160.252 468.884 189.324 485.669L188.793 486.587Z" stroke="url(#paint0_linear_113_286)" stroke-linejoin="round"/>
<circle opacity="0.2" cx="391" cy="298" r="287.5" stroke="#EDEFF1"/>
<defs>
<linearGradient id="paint0_linear_113_286" x1="377.587" y1="595.587" x2="587.639" y2="231.766" gradientUnits="userSpaceOnUse">
<stop stop-color="#F8D350" stop-opacity="0"/>
<stop offset="1" stop-color="#F8D350"/>
</linearGradient>
</defs>
</svg>
